<svg xmlns="http://www.w3.org/2000/svg" xmlns:xlink="http://www.w3.org/1999/xlink" width="500" zoomAndPan="magnify" viewBox="0 0 375 374.999991" height="500" preserveAspectRatio="xMidYMid meet" version="1.0"><defs><g/><clipPath id="542969c087"><path d="M 212 121 L 231.753906 121 L 231.753906 194.65625 L 212 194.65625 Z M 212 121 " clip-rule="nonzero"/></clipPath><clipPath id="821b2e9a6d"><path d="M 178 159 L 197 159 L 197 194.65625 L 178 194.65625 Z M 178 159 " clip-rule="nonzero"/></clipPath><clipPath id="417236e509"><path d="M 143.253906 96.40625 L 197 96.40625 L 197 194.65625 L 143.253906 194.65625 Z M 143.253906 96.40625 " clip-rule="nonzero"/></clipPath></defs><g clip-path="url(#542969c087)"><path fill="#ff3131" d="M 231.734375 136.636719 L 212.007812 121.84375 C 212.007812 146.015625 212.007812 170.191406 212.007812 194.363281 L 231.734375 182.972656 Z M 231.734375 136.636719 " fill-opacity="1" fill-rule="evenodd"/></g><g clip-path="url(#821b2e9a6d)"><path fill="#ff3131" d="M 196.902344 159.917969 L 178.089844 159.917969 L 178.089844 194.363281 L 196.902344 183.5 Z M 196.902344 159.917969 " fill-opacity="1" fill-rule="evenodd"/></g><g clip-path="url(#417236e509)"><path fill="#000000" d="M 162.988281 121.84375 C 162.988281 142.21875 162.988281 162.597656 162.988281 182.972656 L 143.261719 194.363281 L 143.261719 136.636719 L 162.988281 121.84375 L 196.902344 96.40625 C 196.902344 112.605469 196.902344 128.808594 196.902344 145.007812 L 178.089844 145.007812 L 178.089844 121.84375 Z M 162.988281 121.84375 " fill-opacity="1" fill-rule="evenodd"/></g><g fill="#000000" fill-opacity="1"><g transform="translate(108.015085, 242.330645)"><g><path d="M 12.828125 -24.359375 L 19.359375 -24.359375 L 19.359375 0 L 12.828125 0 L 12.828125 -9.640625 L 8.046875 -9.640625 L 8.046875 0 L 1.515625 0 L 1.515625 -24.359375 L 8.046875 -24.359375 L 8.046875 -14.390625 L 12.828125 -14.390625 Z M 12.828125 -24.359375 "/></g></g></g><g fill="#000000" fill-opacity="1"><g transform="translate(134.205221, 242.330645)"><g><path d="M 6.984375 -24.359375 L 12.59375 -24.359375 C 16.3125 -24.359375 18.171875 -22.789062 18.171875 -19.65625 L 18.171875 -4.703125 C 18.171875 -1.566406 16.3125 0 12.59375 0 L 6.984375 0 C 3.265625 0 1.40625 -1.566406 1.40625 -4.703125 L 1.40625 -19.65625 C 1.40625 -22.789062 3.265625 -24.359375 6.984375 -24.359375 Z M 11.53125 -5.578125 L 11.53125 -18.78125 C 11.53125 -19.34375 11.21875 -19.625 10.59375 -19.625 L 9 -19.625 C 8.363281 -19.625 8.046875 -19.34375 8.046875 -18.78125 L 8.046875 -5.578125 C 8.046875 -5.023438 8.363281 -4.75 9 -4.75 L 10.59375 -4.75 C 11.21875 -4.75 11.53125 -5.023438 11.53125 -5.578125 Z M 11.53125 -5.578125 "/></g></g></g><g fill="#000000" fill-opacity="1"><g transform="translate(159.104842, 242.330645)"><g><path d="M 8.15625 -8.65625 L 8.15625 0 L 1.515625 0 L 1.515625 -24.359375 L 12.796875 -24.359375 C 16.515625 -24.359375 18.375 -22.789062 18.375 -19.65625 L 18.375 -13.359375 C 18.375 -10.953125 17.285156 -9.472656 15.109375 -8.921875 L 19.578125 0 L 12.453125 0 L 8.578125 -8.65625 Z M 10.78125 -19.625 L 8.15625 -19.625 L 8.15625 -13.171875 L 10.78125 -13.171875 C 11.414062 -13.171875 11.734375 -13.445312 11.734375 -14 L 11.734375 -18.78125 C 11.734375 -19.34375 11.414062 -19.625 10.78125 -19.625 Z M 10.78125 -19.625 "/></g></g></g><g fill="#000000" fill-opacity="1"><g transform="translate(183.928555, 242.330645)"><g><path d="M 1.515625 -24.359375 L 8.15625 -24.359375 L 8.15625 0 L 1.515625 0 Z M 1.515625 -24.359375 "/></g></g></g><g fill="#000000" fill-opacity="1"><g transform="translate(198.921605, 242.330645)"><g><path d="M 16.84375 -24.359375 L 16.84375 -19.625 L 7.703125 -4.75 L 16.578125 -4.75 L 16.578125 0 L 0.765625 0 L 0.765625 -4.75 L 9.90625 -19.625 L 1.25 -19.625 L 1.25 -24.359375 Z M 16.84375 -24.359375 "/></g></g></g><g fill="#000000" fill-opacity="1"><g transform="translate(221.847508, 242.330645)"><g><path d="M 6.984375 -24.359375 L 12.59375 -24.359375 C 16.3125 -24.359375 18.171875 -22.789062 18.171875 -19.65625 L 18.171875 -4.703125 C 18.171875 -1.566406 16.3125 0 12.59375 0 L 6.984375 0 C 3.265625 0 1.40625 -1.566406 1.40625 -4.703125 L 1.40625 -19.65625 C 1.40625 -22.789062 3.265625 -24.359375 6.984375 -24.359375 Z M 11.53125 -5.578125 L 11.53125 -18.78125 C 11.53125 -19.34375 11.21875 -19.625 10.59375 -19.625 L 9 -19.625 C 8.363281 -19.625 8.046875 -19.34375 8.046875 -18.78125 L 8.046875 -5.578125 C 8.046875 -5.023438 8.363281 -4.75 9 -4.75 L 10.59375 -4.75 C 11.21875 -4.75 11.53125 -5.023438 11.53125 -5.578125 Z M 11.53125 -5.578125 "/></g></g></g><g fill="#000000" fill-opacity="1"><g transform="translate(246.747121, 242.330645)"><g><path d="M 12.640625 -24.359375 L 18.703125 -24.359375 L 18.703125 0 L 13.015625 0 L 7.59375 -12.796875 L 7.59375 0 L 1.515625 0 L 1.515625 -24.359375 L 7.21875 -24.359375 L 12.640625 -11.34375 Z M 12.640625 -24.359375 "/></g></g></g><g fill="#ff3131" fill-opacity="1"><g transform="translate(167.466604, 274.846703)"><g><path d="M 9.171875 -9.359375 C 9.929688 -9.359375 10.5 -9.367188 10.875 -9.390625 L 10.8125 -9.125 C 10.488281 -9.101562 10.25 -9.066406 10.09375 -9.015625 C 9.9375 -8.960938 9.8125 -8.859375 9.71875 -8.703125 C 9.625 -8.554688 9.53125 -8.316406 9.4375 -7.984375 L 7.6875 -1.40625 C 7.613281 -1.070312 7.578125 -0.851562 7.578125 -0.75 C 7.578125 -0.570312 7.640625 -0.453125 7.765625 -0.390625 C 7.890625 -0.328125 8.128906 -0.285156 8.484375 -0.265625 L 8.421875 0 C 8.046875 -0.03125 7.476562 -0.046875 6.71875 -0.046875 C 6.019531 -0.046875 5.460938 -0.03125 5.046875 0 L 5.09375 -0.265625 C 5.414062 -0.285156 5.65625 -0.320312 5.8125 -0.375 C 5.96875 -0.425781 6.09375 -0.523438 6.1875 -0.671875 C 6.28125 -0.828125 6.367188 -1.070312 6.453125 -1.40625 L 7.3125 -4.59375 L 3.046875 -4.59375 L 2.203125 -1.40625 C 2.117188 -1.070312 2.078125 -0.851562 2.078125 -0.75 C 2.078125 -0.570312 2.140625 -0.453125 2.265625 -0.390625 C 2.398438 -0.328125 2.640625 -0.285156 2.984375 -0.265625 L 2.9375 0 C 2.53125 -0.03125 1.96875 -0.046875 1.25 -0.046875 C 0.5 -0.046875 -0.0625 -0.03125 -0.4375 0 L -0.375 -0.265625 C -0.0625 -0.285156 0.171875 -0.320312 0.328125 -0.375 C 0.484375 -0.425781 0.601562 -0.53125 0.6875 -0.6875 C 0.78125 -0.84375 0.875 -1.082031 0.96875 -1.40625 L 2.71875 -7.984375 C 2.789062 -8.285156 2.828125 -8.5 2.828125 -8.625 C 2.828125 -8.820312 2.757812 -8.945312 2.625 -9 C 2.5 -9.0625 2.269531 -9.101562 1.9375 -9.125 L 2 -9.390625 C 2.363281 -9.367188 2.925781 -9.359375 3.6875 -9.359375 C 4.394531 -9.359375 4.960938 -9.367188 5.390625 -9.390625 L 5.3125 -9.125 C 4.988281 -9.101562 4.75 -9.066406 4.59375 -9.015625 C 4.4375 -8.960938 4.3125 -8.859375 4.21875 -8.703125 C 4.125 -8.554688 4.035156 -8.316406 3.953125 -7.984375 L 3.125 -4.859375 L 7.375 -4.859375 L 8.21875 -7.984375 C 8.289062 -8.265625 8.328125 -8.476562 8.328125 -8.625 C 8.328125 -8.820312 8.257812 -8.945312 8.125 -9 C 8 -9.0625 7.765625 -9.101562 7.421875 -9.125 L 7.5 -9.390625 C 7.894531 -9.367188 8.453125 -9.359375 9.171875 -9.359375 Z M 9.171875 -9.359375 "/></g></g></g><g fill="#ff3131" fill-opacity="1"><g transform="translate(178.141787, 274.846703)"><g><path d="M 6.03125 -2.15625 L 6.28125 -2.15625 L 5.953125 -1.1875 C 5.773438 -0.707031 5.550781 -0.359375 5.28125 -0.140625 C 5.007812 0.078125 4.726562 0.1875 4.4375 0.1875 C 4.257812 0.1875 4.109375 0.15625 3.984375 0.09375 C 3.867188 0.03125 3.773438 -0.0507812 3.703125 -0.15625 C 3.617188 -0.289062 3.578125 -0.445312 3.578125 -0.625 C 3.578125 -0.8125 3.609375 -1.019531 3.671875 -1.25 C 3.734375 -1.476562 3.773438 -1.625 3.796875 -1.6875 L 4.03125 -2.640625 C 3.601562 -1.648438 3.171875 -0.929688 2.734375 -0.484375 C 2.296875 -0.0351562 1.835938 0.1875 1.359375 0.1875 C 0.953125 0.1875 0.644531 0.0390625 0.4375 -0.25 C 0.226562 -0.539062 0.125 -0.929688 0.125 -1.421875 C 0.125 -2.140625 0.3125 -2.9375 0.6875 -3.8125 C 1.070312 -4.695312 1.566406 -5.445312 2.171875 -6.0625 C 2.785156 -6.6875 3.40625 -7 4.03125 -7 C 4.269531 -7 4.460938 -6.910156 4.609375 -6.734375 C 4.765625 -6.554688 4.851562 -6.3125 4.875 -6 L 5.09375 -6.8125 C 5.582031 -6.832031 5.988281 -6.894531 6.3125 -7 L 4.65625 -1.140625 C 4.644531 -1.109375 4.625 -1.039062 4.59375 -0.9375 C 4.570312 -0.832031 4.5625 -0.738281 4.5625 -0.65625 C 4.5625 -0.425781 4.660156 -0.3125 4.859375 -0.3125 C 5.242188 -0.3125 5.582031 -0.765625 5.875 -1.671875 Z M 1.75 -0.234375 C 2 -0.234375 2.296875 -0.421875 2.640625 -0.796875 C 2.984375 -1.179688 3.320312 -1.691406 3.65625 -2.328125 C 3.988281 -2.960938 4.257812 -3.632812 4.46875 -4.34375 L 4.703125 -5.296875 C 4.710938 -5.367188 4.71875 -5.460938 4.71875 -5.578125 C 4.71875 -5.941406 4.65625 -6.226562 4.53125 -6.4375 C 4.40625 -6.644531 4.226562 -6.75 4 -6.75 C 3.613281 -6.75 3.207031 -6.453125 2.78125 -5.859375 C 2.363281 -5.273438 2.007812 -4.550781 1.71875 -3.6875 C 1.425781 -2.832031 1.28125 -2.023438 1.28125 -1.265625 C 1.28125 -0.898438 1.320312 -0.632812 1.40625 -0.46875 C 1.488281 -0.3125 1.601562 -0.234375 1.75 -0.234375 Z M 1.75 -0.234375 "/></g></g></g><g fill="#ff3131" fill-opacity="1"><g transform="translate(185.740526, 274.846703)"><g><path d="M 6.28125 -5.03125 C 6.007812 -5.164062 5.78125 -5.347656 5.59375 -5.578125 C 5.40625 -5.804688 5.3125 -6.070312 5.3125 -6.375 C 5.3125 -6.59375 5.367188 -6.753906 5.484375 -6.859375 C 5.609375 -6.960938 5.75 -7.015625 5.90625 -7.015625 C 6.15625 -7.015625 6.335938 -6.894531 6.453125 -6.65625 C 6.578125 -6.414062 6.640625 -6.085938 6.640625 -5.671875 C 6.640625 -5.441406 6.632812 -5.265625 6.625 -5.140625 C 6.507812 -4.234375 6.273438 -3.375 5.921875 -2.5625 C 5.566406 -1.75 5.085938 -1.085938 4.484375 -0.578125 C 3.890625 -0.0664062 3.203125 0.1875 2.421875 0.1875 C 1.867188 0.1875 1.472656 0.03125 1.234375 -0.28125 C 0.992188 -0.601562 0.890625 -0.992188 0.921875 -1.453125 C 0.972656 -2.179688 1.273438 -2.992188 1.828125 -3.890625 C 2.378906 -4.785156 3.101562 -5.65625 4 -6.5 C 3.769531 -6.414062 3.515625 -6.285156 3.234375 -6.109375 C 3.015625 -5.960938 2.820312 -5.851562 2.65625 -5.78125 C 2.5 -5.707031 2.359375 -5.671875 2.234375 -5.671875 C 2.140625 -5.671875 2.046875 -5.695312 1.953125 -5.75 C 1.867188 -5.800781 1.816406 -5.832031 1.796875 -5.84375 C 1.628906 -5.945312 1.5 -6 1.40625 -6 C 1.257812 -6 1.140625 -5.9375 1.046875 -5.8125 C 0.960938 -5.695312 0.863281 -5.484375 0.75 -5.171875 L 0.609375 -4.6875 L 0.359375 -4.6875 L 0.65625 -5.65625 C 0.894531 -6.550781 1.304688 -7 1.890625 -7 C 2.003906 -7 2.101562 -6.976562 2.1875 -6.9375 C 2.269531 -6.90625 2.375 -6.84375 2.5 -6.75 C 2.613281 -6.664062 2.710938 -6.597656 2.796875 -6.546875 C 2.890625 -6.503906 2.992188 -6.484375 3.109375 -6.484375 C 3.546875 -6.484375 3.914062 -6.617188 4.21875 -6.890625 L 4.34375 -7.15625 L 4.625 -7.015625 C 3.914062 -6.128906 3.359375 -5.25 2.953125 -4.375 C 2.554688 -3.5 2.316406 -2.601562 2.234375 -1.6875 C 2.234375 -1.601562 2.234375 -1.492188 2.234375 -1.359375 C 2.234375 -0.617188 2.425781 -0.25 2.8125 -0.25 C 3.457031 -0.25 4.039062 -0.519531 4.5625 -1.0625 C 5.082031 -1.601562 5.492188 -2.25 5.796875 -3 C 6.097656 -3.757812 6.257812 -4.4375 6.28125 -5.03125 Z M 6.28125 -5.03125 "/></g></g></g><g fill="#ff3131" fill-opacity="1"><g transform="translate(193.471871, 274.846703)"><g><path d="M 5.515625 -6.125 C 5.515625 -5.40625 5.113281 -4.773438 4.3125 -4.234375 C 3.507812 -3.703125 2.585938 -3.269531 1.546875 -2.9375 C 1.453125 -2.488281 1.40625 -2.054688 1.40625 -1.640625 C 1.40625 -0.796875 1.710938 -0.375 2.328125 -0.375 C 3.085938 -0.375 3.765625 -0.816406 4.359375 -1.703125 L 4.578125 -1.59375 C 4.296875 -1.101562 3.910156 -0.679688 3.421875 -0.328125 C 2.941406 0.015625 2.4375 0.1875 1.90625 0.1875 C 1.363281 0.1875 0.9375 0.03125 0.625 -0.28125 C 0.3125 -0.601562 0.15625 -1.070312 0.15625 -1.6875 C 0.15625 -2.351562 0.351562 -3.109375 0.75 -3.953125 C 1.144531 -4.804688 1.675781 -5.523438 2.34375 -6.109375 C 3.019531 -6.703125 3.75 -7 4.53125 -7 C 4.820312 -7 5.054688 -6.921875 5.234375 -6.765625 C 5.421875 -6.617188 5.515625 -6.40625 5.515625 -6.125 Z M 4.25 -6.75 C 3.96875 -6.75 3.648438 -6.582031 3.296875 -6.25 C 2.941406 -5.914062 2.613281 -5.472656 2.3125 -4.921875 C 2.007812 -4.378906 1.78125 -3.800781 1.625 -3.1875 C 2.457031 -3.476562 3.054688 -3.757812 3.421875 -4.03125 C 3.742188 -4.289062 3.992188 -4.601562 4.171875 -4.96875 C 4.359375 -5.332031 4.453125 -5.726562 4.453125 -6.15625 C 4.453125 -6.394531 4.429688 -6.550781 4.390625 -6.625 C 4.359375 -6.707031 4.3125 -6.75 4.25 -6.75 Z M 4.25 -6.75 "/></g></g></g><g fill="#ff3131" fill-opacity="1"><g transform="translate(199.824122, 274.846703)"><g><path d="M 7.03125 -2.15625 L 6.703125 -1.1875 C 6.378906 -0.269531 5.84375 0.1875 5.09375 0.1875 C 4.695312 0.1875 4.421875 0.0546875 4.265625 -0.203125 C 4.191406 -0.304688 4.15625 -0.453125 4.15625 -0.640625 C 4.15625 -0.878906 4.226562 -1.222656 4.375 -1.671875 L 5.640625 -5.46875 C 5.722656 -5.757812 5.765625 -5.972656 5.765625 -6.109375 C 5.765625 -6.421875 5.625 -6.578125 5.34375 -6.578125 C 5.007812 -6.578125 4.628906 -6.332031 4.203125 -5.84375 C 3.773438 -5.351562 3.351562 -4.675781 2.9375 -3.8125 C 2.519531 -2.957031 2.160156 -2.007812 1.859375 -0.96875 L 1.625 0 L 0.46875 0 L 2.0625 -5.6875 C 2.125 -5.914062 2.15625 -6.082031 2.15625 -6.1875 C 2.15625 -6.40625 2.054688 -6.515625 1.859375 -6.515625 C 1.660156 -6.515625 1.484375 -6.414062 1.328125 -6.21875 C 1.179688 -6.03125 1.015625 -5.675781 0.828125 -5.15625 L 0.65625 -4.671875 L 0.40625 -4.671875 L 0.75 -5.640625 C 1.0625 -6.546875 1.585938 -7 2.328125 -7 C 2.609375 -7 2.804688 -6.929688 2.921875 -6.796875 C 3.046875 -6.660156 3.109375 -6.46875 3.109375 -6.21875 C 3.109375 -5.976562 3.046875 -5.617188 2.921875 -5.140625 L 2.453125 -3.328125 C 3.015625 -4.660156 3.554688 -5.601562 4.078125 -6.15625 C 4.597656 -6.71875 5.164062 -7 5.78125 -7 C 6.5 -7 6.859375 -6.671875 6.859375 -6.015625 C 6.859375 -5.722656 6.789062 -5.382812 6.65625 -5 L 5.375 -1.125 C 5.300781 -0.914062 5.265625 -0.75 5.265625 -0.625 C 5.265625 -0.414062 5.367188 -0.3125 5.578125 -0.3125 C 5.753906 -0.3125 5.925781 -0.410156 6.09375 -0.609375 C 6.257812 -0.804688 6.429688 -1.15625 6.609375 -1.65625 L 6.78125 -2.15625 Z M 7.03125 -2.15625 "/></g></g></g></svg>