<svg xmlns="http://www.w3.org/2000/svg" xmlns:xlink="http://www.w3.org/1999/xlink" width="500" zoomAndPan="magnify" viewBox="0 0 375 374.999991" height="500" preserveAspectRatio="xMidYMid meet" version="1.0"><defs><g/><clipPath id="02c6a94c0f"><path d="M 124 160 L 144.65625 160 L 144.65625 233.78125 L 124 233.78125 Z M 124 160 " clip-rule="nonzero"/></clipPath><clipPath id="4d5ddacf0b"><path d="M 90 199 L 110 199 L 110 233.78125 L 90 233.78125 Z M 90 199 " clip-rule="nonzero"/></clipPath><clipPath id="db428be411"><path d="M 56.15625 135.53125 L 110 135.53125 L 110 233.78125 L 56.15625 233.78125 Z M 56.15625 135.53125 " clip-rule="nonzero"/></clipPath></defs><g clip-path="url(#02c6a94c0f)"><path fill="#ff3131" d="M 144.636719 175.765625 L 124.910156 160.96875 C 124.910156 185.140625 124.910156 209.316406 124.910156 233.488281 L 144.636719 222.101562 Z M 144.636719 175.765625 " fill-opacity="1" fill-rule="evenodd"/></g><g clip-path="url(#4d5ddacf0b)"><path fill="#ff3131" d="M 109.808594 199.046875 L 90.996094 199.046875 L 90.996094 233.488281 L 109.808594 222.628906 Z M 109.808594 199.046875 " fill-opacity="1" fill-rule="evenodd"/></g><g clip-path="url(#db428be411)"><path fill="#000000" d="M 75.890625 160.96875 C 75.890625 181.347656 75.890625 201.722656 75.890625 222.101562 L 56.164062 233.488281 L 56.164062 175.765625 L 75.890625 160.96875 L 109.808594 135.53125 C 109.808594 151.734375 109.808594 167.933594 109.808594 184.136719 L 90.996094 184.136719 L 90.996094 160.96875 Z M 75.890625 160.96875 " fill-opacity="1" fill-rule="evenodd"/></g><g fill="#000000" fill-opacity="1"><g transform="translate(152.89648, 203.620964)"><g><path d="M 12.828125 -24.359375 L 19.359375 -24.359375 L 19.359375 0 L 12.828125 0 L 12.828125 -9.640625 L 8.046875 -9.640625 L 8.046875 0 L 1.515625 0 L 1.515625 -24.359375 L 8.046875 -24.359375 L 8.046875 -14.390625 L 12.828125 -14.390625 Z M 12.828125 -24.359375 "/></g></g></g><g fill="#000000" fill-opacity="1"><g transform="translate(179.086615, 203.620964)"><g><path d="M 6.984375 -24.359375 L 12.59375 -24.359375 C 16.3125 -24.359375 18.171875 -22.789062 18.171875 -19.65625 L 18.171875 -4.703125 C 18.171875 -1.566406 16.3125 0 12.59375 0 L 6.984375 0 C 3.265625 0 1.40625 -1.566406 1.40625 -4.703125 L 1.40625 -19.65625 C 1.40625 -22.789062 3.265625 -24.359375 6.984375 -24.359375 Z M 11.53125 -5.578125 L 11.53125 -18.78125 C 11.53125 -19.34375 11.21875 -19.625 10.59375 -19.625 L 9 -19.625 C 8.363281 -19.625 8.046875 -19.34375 8.046875 -18.78125 L 8.046875 -5.578125 C 8.046875 -5.023438 8.363281 -4.75 9 -4.75 L 10.59375 -4.75 C 11.21875 -4.75 11.53125 -5.023438 11.53125 -5.578125 Z M 11.53125 -5.578125 "/></g></g></g><g fill="#000000" fill-opacity="1"><g transform="translate(203.986236, 203.620964)"><g><path d="M 8.15625 -8.65625 L 8.15625 0 L 1.515625 0 L 1.515625 -24.359375 L 12.796875 -24.359375 C 16.515625 -24.359375 18.375 -22.789062 18.375 -19.65625 L 18.375 -13.359375 C 18.375 -10.953125 17.285156 -9.472656 15.109375 -8.921875 L 19.578125 0 L 12.453125 0 L 8.578125 -8.65625 Z M 10.78125 -19.625 L 8.15625 -19.625 L 8.15625 -13.171875 L 10.78125 -13.171875 C 11.414062 -13.171875 11.734375 -13.445312 11.734375 -14 L 11.734375 -18.78125 C 11.734375 -19.34375 11.414062 -19.625 10.78125 -19.625 Z M 10.78125 -19.625 "/></g></g></g><g fill="#000000" fill-opacity="1"><g transform="translate(228.809949, 203.620964)"><g><path d="M 1.515625 -24.359375 L 8.15625 -24.359375 L 8.15625 0 L 1.515625 0 Z M 1.515625 -24.359375 "/></g></g></g><g fill="#000000" fill-opacity="1"><g transform="translate(243.802999, 203.620964)"><g><path d="M 16.84375 -24.359375 L 16.84375 -19.625 L 7.703125 -4.75 L 16.578125 -4.75 L 16.578125 0 L 0.765625 0 L 0.765625 -4.75 L 9.90625 -19.625 L 1.25 -19.625 L 1.25 -24.359375 Z M 16.84375 -24.359375 "/></g></g></g><g fill="#000000" fill-opacity="1"><g transform="translate(266.728902, 203.620964)"><g><path d="M 6.984375 -24.359375 L 12.59375 -24.359375 C 16.3125 -24.359375 18.171875 -22.789062 18.171875 -19.65625 L 18.171875 -4.703125 C 18.171875 -1.566406 16.3125 0 12.59375 0 L 6.984375 0 C 3.265625 0 1.40625 -1.566406 1.40625 -4.703125 L 1.40625 -19.65625 C 1.40625 -22.789062 3.265625 -24.359375 6.984375 -24.359375 Z M 11.53125 -5.578125 L 11.53125 -18.78125 C 11.53125 -19.34375 11.21875 -19.625 10.59375 -19.625 L 9 -19.625 C 8.363281 -19.625 8.046875 -19.34375 8.046875 -18.78125 L 8.046875 -5.578125 C 8.046875 -5.023438 8.363281 -4.75 9 -4.75 L 10.59375 -4.75 C 11.21875 -4.75 11.53125 -5.023438 11.53125 -5.578125 Z M 11.53125 -5.578125 "/></g></g></g><g fill="#000000" fill-opacity="1"><g transform="translate(291.628516, 203.620964)"><g><path d="M 12.640625 -24.359375 L 18.703125 -24.359375 L 18.703125 0 L 13.015625 0 L 7.59375 -12.796875 L 7.59375 0 L 1.515625 0 L 1.515625 -24.359375 L 7.21875 -24.359375 L 12.640625 -11.34375 Z M 12.640625 -24.359375 "/></g></g></g><g fill="#ff3131" fill-opacity="1"><g transform="translate(153.92702, 221.212793)"><g><path d="M 9.671875 0 L 9.671875 -5.1875 L 3.484375 -5.1875 L 3.484375 0 L 1.421875 0 L 1.421875 -11.984375 L 3.484375 -11.984375 L 3.484375 -6.90625 L 9.671875 -6.90625 L 9.671875 -11.984375 L 11.734375 -11.984375 L 11.734375 0 Z M 9.671875 0 "/></g></g></g><g fill="#ff3131" fill-opacity="1"><g transform="translate(167.984978, 221.212793)"><g><path d="M 8.671875 0.140625 C 8.460938 0.140625 8.257812 0.113281 8.0625 0.0625 C 7.863281 0.0195312 7.6875 -0.0546875 7.53125 -0.171875 C 7.382812 -0.285156 7.269531 -0.4375 7.1875 -0.625 C 7.101562 -0.8125 7.066406 -1.039062 7.078125 -1.3125 C 6.691406 -0.84375 6.210938 -0.484375 5.640625 -0.234375 C 5.066406 0.015625 4.457031 0.140625 3.8125 0.140625 C 2.914062 0.140625 2.1875 -0.0703125 1.625 -0.5 C 1.070312 -0.9375 0.796875 -1.53125 0.796875 -2.28125 L 0.796875 -2.359375 C 0.796875 -2.898438 0.953125 -3.351562 1.265625 -3.71875 C 1.585938 -4.082031 2.015625 -4.363281 2.546875 -4.5625 C 3.078125 -4.757812 3.691406 -4.875 4.390625 -4.90625 C 5.097656 -4.945312 5.84375 -4.914062 6.625 -4.8125 L 6.625 -5.453125 C 6.625 -5.992188 6.476562 -6.410156 6.1875 -6.703125 C 5.90625 -7.003906 5.476562 -7.15625 4.90625 -7.15625 C 4.363281 -7.15625 3.921875 -7.03125 3.578125 -6.78125 C 3.234375 -6.539062 2.921875 -6.191406 2.640625 -5.734375 L 1.265625 -6.46875 C 1.628906 -7.144531 2.101562 -7.671875 2.6875 -8.046875 C 3.269531 -8.429688 3.984375 -8.625 4.828125 -8.625 C 5.453125 -8.625 5.988281 -8.539062 6.4375 -8.375 C 6.894531 -8.21875 7.273438 -7.988281 7.578125 -7.6875 C 7.878906 -7.382812 8.097656 -7.019531 8.234375 -6.59375 C 8.378906 -6.175781 8.453125 -5.710938 8.453125 -5.203125 L 8.453125 -1.859375 C 8.453125 -1.617188 8.507812 -1.445312 8.625 -1.34375 C 8.75 -1.25 8.992188 -1.203125 9.359375 -1.203125 L 9.359375 0.140625 Z M 6.625 -3.671875 C 5.332031 -3.878906 4.347656 -3.863281 3.671875 -3.625 C 2.992188 -3.394531 2.65625 -2.988281 2.65625 -2.40625 L 2.65625 -2.375 C 2.65625 -2.070312 2.789062 -1.8125 3.0625 -1.59375 C 3.332031 -1.382812 3.695312 -1.28125 4.15625 -1.28125 C 4.445312 -1.28125 4.734375 -1.320312 5.015625 -1.40625 C 5.304688 -1.488281 5.570312 -1.601562 5.8125 -1.75 C 6.050781 -1.894531 6.242188 -2.066406 6.390625 -2.265625 C 6.546875 -2.460938 6.625 -2.679688 6.625 -2.921875 Z M 6.625 -3.671875 "/></g></g></g><g fill="#ff3131" fill-opacity="1"><g transform="translate(178.676955, 221.212793)"><g><path d="M 5.453125 0 L 3.75 0 L 0.203125 -8.421875 L 2.265625 -8.421875 L 3.890625 -3.984375 L 4.65625 -1.90625 L 5.4375 -3.984375 L 7.03125 -8.421875 L 9.015625 -8.421875 Z M 5.453125 0 "/></g></g></g><g fill="#ff3131" fill-opacity="1"><g transform="translate(188.828931, 221.212793)"><g><path d="M 2.765625 -4.046875 L 2.765625 -3.234375 C 2.765625 -2.671875 2.972656 -2.203125 3.390625 -1.828125 C 3.816406 -1.460938 4.382812 -1.28125 5.09375 -1.28125 C 5.644531 -1.28125 6.101562 -1.4375 6.46875 -1.75 C 6.832031 -2.0625 7.097656 -2.441406 7.265625 -2.890625 L 8.8125 -2.359375 C 8.125 -0.691406 6.847656 0.140625 4.984375 0.140625 C 4.390625 0.140625 3.835938 0.0546875 3.328125 -0.109375 C 2.828125 -0.285156 2.394531 -0.53125 2.03125 -0.84375 C 1.675781 -1.164062 1.394531 -1.550781 1.1875 -2 C 0.976562 -2.457031 0.875 -2.96875 0.875 -3.53125 L 0.875 -4.875 C 0.875 -5.40625 0.96875 -5.894531 1.15625 -6.34375 C 1.34375 -6.800781 1.609375 -7.195312 1.953125 -7.53125 C 2.296875 -7.875 2.710938 -8.140625 3.203125 -8.328125 C 3.703125 -8.523438 4.269531 -8.625 4.90625 -8.625 C 5.53125 -8.625 6.09375 -8.53125 6.59375 -8.34375 C 7.09375 -8.15625 7.507812 -7.894531 7.84375 -7.5625 C 8.1875 -7.226562 8.445312 -6.828125 8.625 -6.359375 C 8.800781 -5.898438 8.890625 -5.394531 8.890625 -4.84375 L 8.890625 -4.046875 Z M 7.078125 -5.40625 C 7.078125 -5.625 7.023438 -5.84375 6.921875 -6.0625 C 6.816406 -6.289062 6.671875 -6.484375 6.484375 -6.640625 C 6.296875 -6.804688 6.070312 -6.941406 5.8125 -7.046875 C 5.5625 -7.148438 5.273438 -7.203125 4.953125 -7.203125 C 4.273438 -7.203125 3.738281 -7.023438 3.34375 -6.671875 C 2.957031 -6.328125 2.765625 -5.90625 2.765625 -5.40625 L 2.765625 -5.046875 L 7.078125 -5.046875 Z M 7.078125 -5.40625 "/></g></g></g><g fill="#ff3131" fill-opacity="1"><g transform="translate(199.394897, 221.212793)"><g><path d="M 7.421875 0 L 7.421875 -5.453125 C 7.421875 -6.617188 6.882812 -7.203125 5.8125 -7.203125 C 5.476562 -7.203125 5.15625 -7.109375 4.84375 -6.921875 C 4.53125 -6.734375 4.253906 -6.492188 4.015625 -6.203125 C 3.785156 -5.910156 3.601562 -5.585938 3.46875 -5.234375 C 3.332031 -4.878906 3.265625 -4.53125 3.265625 -4.1875 L 3.265625 0 L 1.3125 0 L 1.3125 -8.421875 L 3 -8.421875 L 3.0625 -6.015625 C 3.476562 -6.929688 3.976562 -7.59375 4.5625 -8 C 5.144531 -8.414062 5.800781 -8.625 6.53125 -8.625 C 6.988281 -8.625 7.390625 -8.546875 7.734375 -8.390625 C 8.085938 -8.242188 8.382812 -8.035156 8.625 -7.765625 C 8.863281 -7.503906 9.046875 -7.1875 9.171875 -6.8125 C 9.296875 -6.445312 9.359375 -6.046875 9.359375 -5.609375 L 9.359375 0 Z M 7.421875 0 "/></g></g></g></svg>