<svg width="339" height="131" viewBox="0 0 339 131" fill="none" xmlns="http://www.w3.org/2000/svg">
<g clip-path="url(#clip0_9_69)">
<mask id="mask0_9_69" style="mask-type:luminance" maskUnits="userSpaceOnUse" x="90" y="32" width="28" height="99">
<path d="M90.3333 32.3334H117.875V130.708H90.3333V32.3334Z" fill="white"/>
</mask>
<g mask="url(#mask0_9_69)">
<path fill-rule="evenodd" clip-rule="evenodd" d="M117.849 53.3542L91.5469 33.625C91.5469 65.8542 91.5469 98.0886 91.5469 130.318L117.849 115.135V53.3542Z" fill="#FF3131"/>
</g>
<mask id="mask1_9_69" style="mask-type:luminance" maskUnits="userSpaceOnUse" x="45" y="84" width="27" height="47">
<path d="M45 84.3334H71.6667V130.708H45V84.3334Z" fill="white"/>
</mask>
<g mask="url(#mask1_9_69)">
<path fill-rule="evenodd" clip-rule="evenodd" d="M71.4115 84.3959H46.3281V130.318L71.4115 115.839V84.3959Z" fill="#FF3131"/>
</g>
<mask id="mask2_9_69" style="mask-type:luminance" maskUnits="userSpaceOnUse" x="-1" y="-1" width="73" height="132">
<path d="M-0.125 -0.291626H71.6667V130.708H-0.125V-0.291626Z" fill="white"/>
</mask>
<g mask="url(#mask2_9_69)">
<path fill-rule="evenodd" clip-rule="evenodd" d="M26.1875 33.625C26.1875 60.7969 26.1875 87.9636 26.1875 115.135L-0.114563 130.318V53.3542L26.1875 33.625L71.4115 -0.291626C71.4115 21.3125 71.4115 42.9115 71.4115 64.5157H46.3281V33.625H26.1875Z" fill="black"/>
</g>
<path d="M145.966 58.0154H154.674V90.4946H145.966V77.6404H139.591V90.4946H130.883V58.0154H139.591V71.3071H145.966V58.0154Z" fill="black"/>
<path d="M173.095 58.0154H180.574C185.532 58.0154 188.011 60.1092 188.011 64.2863V84.2238C188.011 88.4061 185.532 90.4946 180.574 90.4946H173.095C168.136 90.4946 165.657 88.4061 165.657 84.2238V64.2863C165.657 60.1092 168.136 58.0154 173.095 58.0154ZM179.157 83.0571V65.4529C179.157 64.7029 178.74 64.3279 177.907 64.3279H175.782C174.933 64.3279 174.511 64.7029 174.511 65.4529V83.0571C174.511 83.7967 174.933 84.1613 175.782 84.1613H177.907C178.74 84.1613 179.157 83.7967 179.157 83.0571Z" fill="black"/>
<path d="M207.857 78.9529V90.4946H199.002V58.0154H214.044C219.002 58.0154 221.482 60.1092 221.482 64.2863V72.6821C221.482 75.8904 220.028 77.8644 217.127 78.5988L223.086 90.4946H213.586L208.419 78.9529H207.857ZM211.357 64.3279H207.857V72.9321H211.357C212.2 72.9321 212.627 72.5675 212.627 71.8279V65.4529C212.627 64.7029 212.2 64.3279 211.357 64.3279Z" fill="black"/>
<path d="M232.101 58.0154H240.955V90.4946H232.101V58.0154Z" fill="black"/>
<path d="M272.529 58.0154V64.3279L260.342 84.1613H272.175V90.4946H251.092V84.1613L263.279 64.3279H251.737V58.0154H272.529Z" fill="black"/>
<path d="M289.951 58.0154H297.43C302.389 58.0154 304.868 60.1092 304.868 64.2863V84.2238C304.868 88.4061 302.389 90.4946 297.43 90.4946H289.951C284.993 90.4946 282.514 88.4061 282.514 84.2238V64.2863C282.514 60.1092 284.993 58.0154 289.951 58.0154ZM296.014 83.0571V65.4529C296.014 64.7029 295.597 64.3279 294.764 64.3279H292.639C291.79 64.3279 291.368 64.7029 291.368 65.4529V83.0571C291.368 83.7967 291.79 84.1613 292.639 84.1613H294.764C295.597 84.1613 296.014 83.7967 296.014 83.0571Z" fill="black"/>
<path d="M330.692 58.0154H338.776V90.4946H331.192L323.963 73.4321V90.4946H315.859V58.0154H323.463L330.692 75.3696V58.0154Z" fill="black"/>
<path d="M143.132 113.95V107.034H134.882V113.95H132.132V97.9713H134.882V104.742H143.132V97.9713H145.882V113.95H143.132Z" fill="#FF3131"/>
<path d="M160.542 114.138C160.261 114.138 159.99 114.101 159.73 114.034C159.464 113.976 159.23 113.878 159.022 113.721C158.824 113.57 158.673 113.367 158.563 113.117C158.449 112.867 158.402 112.565 158.417 112.2C157.902 112.825 157.261 113.305 156.501 113.638C155.735 113.971 154.923 114.138 154.063 114.138C152.865 114.138 151.897 113.857 151.147 113.284C150.407 112.7 150.042 111.909 150.042 110.909V110.805C150.042 110.086 150.251 109.482 150.667 108.992C151.095 108.508 151.667 108.133 152.376 107.867C153.084 107.607 153.902 107.45 154.834 107.409C155.777 107.357 156.772 107.398 157.813 107.534V106.68C157.813 105.961 157.615 105.404 157.23 105.013C156.855 104.612 156.282 104.409 155.522 104.409C154.798 104.409 154.209 104.575 153.751 104.909C153.292 105.232 152.876 105.695 152.501 106.305L150.667 105.325C151.152 104.424 151.782 103.721 152.563 103.221C153.339 102.711 154.292 102.45 155.417 102.45C156.251 102.45 156.964 102.565 157.563 102.784C158.173 102.992 158.678 103.299 159.084 103.7C159.485 104.107 159.777 104.591 159.959 105.159C160.152 105.716 160.251 106.336 160.251 107.013V111.471C160.251 111.794 160.324 112.023 160.48 112.159C160.647 112.284 160.97 112.346 161.459 112.346V114.138H160.542ZM157.813 109.055C156.089 108.779 154.777 108.799 153.876 109.117C152.97 109.424 152.522 109.966 152.522 110.742V110.784C152.522 111.19 152.699 111.534 153.063 111.825C153.423 112.107 153.907 112.242 154.522 112.242C154.907 112.242 155.292 112.19 155.667 112.075C156.053 111.966 156.407 111.815 156.73 111.617C157.048 111.424 157.303 111.195 157.501 110.93C157.709 110.669 157.813 110.378 157.813 110.055V109.055Z" fill="#FF3131"/>
<path d="M170.507 113.95H168.236L163.507 102.721H166.257L168.423 108.638L169.444 111.409L170.486 108.638L172.611 102.721H175.257L170.507 113.95Z" fill="#FF3131"/>
<path d="M180.459 108.555V109.638C180.459 110.388 180.735 111.013 181.293 111.513C181.86 112.003 182.616 112.242 183.564 112.242C184.298 112.242 184.907 112.034 185.397 111.617C185.881 111.2 186.235 110.695 186.459 110.096L188.522 110.805C187.605 113.029 185.902 114.138 183.418 114.138C182.626 114.138 181.887 114.023 181.209 113.805C180.543 113.57 179.965 113.242 179.48 112.825C179.006 112.398 178.631 111.883 178.355 111.284C178.074 110.674 177.939 109.992 177.939 109.242V107.45C177.939 106.742 178.064 106.091 178.314 105.492C178.564 104.883 178.918 104.357 179.376 103.909C179.834 103.45 180.387 103.096 181.043 102.846C181.709 102.586 182.465 102.45 183.314 102.45C184.147 102.45 184.897 102.575 185.564 102.825C186.23 103.075 186.782 103.424 187.23 103.867C187.689 104.315 188.032 104.846 188.272 105.471C188.506 106.086 188.626 106.758 188.626 107.492V108.555H180.459ZM186.209 106.742C186.209 106.45 186.137 106.159 186.001 105.867C185.86 105.565 185.668 105.305 185.418 105.096C185.168 104.878 184.866 104.695 184.522 104.555C184.189 104.419 183.803 104.346 183.376 104.346C182.47 104.346 181.756 104.586 181.23 105.055C180.715 105.513 180.459 106.075 180.459 106.742V107.221H186.209V106.742Z" fill="#FF3131"/>
<path d="M200.756 113.95V106.68C200.756 105.128 200.037 104.346 198.61 104.346C198.162 104.346 197.735 104.471 197.318 104.721C196.902 104.971 196.532 105.294 196.214 105.68C195.907 106.07 195.662 106.503 195.485 106.971C195.303 107.445 195.214 107.909 195.214 108.367V113.95H192.61V102.721H194.86L194.943 105.93C195.495 104.711 196.162 103.825 196.943 103.284C197.719 102.732 198.594 102.45 199.568 102.45C200.178 102.45 200.714 102.555 201.172 102.763C201.641 102.961 202.037 103.237 202.36 103.596C202.678 103.945 202.922 104.367 203.089 104.867C203.256 105.357 203.339 105.888 203.339 106.471V113.95H200.756Z" fill="#FF3131"/>
</g>
<defs>
<clipPath id="clip0_9_69">
<rect width="339" height="131" fill="white"/>
</clipPath>
</defs>
</svg>
